<?xml version="1.0" encoding="utf-8"?>
<!-- Generator: Adobe Illustrator 24.0.3, SVG Export Plug-In . SVG Version: 6.00 Build 0)  -->
<svg version="1.1" id="Layer_1" xmlns="http://www.w3.org/2000/svg" xmlns:xlink="http://www.w3.org/1999/xlink" x="0px" y="0px"
	 viewBox="0 0 150 150" style="enable-background:new 0 0 150 150;" xml:space="preserve">
<style type="text/css">
	.st0{fill:#61C0E7;}
</style>
<g>
	<path class="st0" d="M45.5,45.2c1-0.3,1.6-1.4,1.3-2.4c-0.3-1-1.4-1.6-2.4-1.3c-3.4,1-6.5,2.9-8.9,5.4c-6.5,7-5.4,16.3-5.1,18.1
		c0.2,0.9,1,1.6,1.9,1.6c1.2,0,2.1-1.1,1.9-2.2c-0.2-1.5-1.2-9.2,4.1-14.9C40.8,47,43.6,45.8,45.5,45.2L45.5,45.2z M87.8,35.5
		c-2.4,2.4-2.5,6.5,0,9l4.9,4.9c1.5,1.5,3.5,2.3,5.5,2.3c2.1,0,4.1-0.8,5.5-2.3l13.9-13.9c2.5-2.5,2.4-6.8-0.2-9.2
		c-2.5-2.3-6.4-2.2-8.9,0.3L98.3,37l-1.5-1.5C94.4,33,90.3,33.1,87.8,35.5z M98.3,41.2c0.7,0,1.4-0.3,2-0.8l11.1-11.1
		c1-1,2.6-1.1,3.6-0.2c1.1,1,1.1,2.7,0.1,3.7l-13.9,13.9c-0.8,0.8-1.8,1.2-2.9,1.2c-1.1,0-2.1-0.4-2.9-1.2l-4.9-4.9
		c-1-1-1-2.6,0-3.6c1-1,2.6-1,3.6,0l2.2,2.2C96.8,40.9,97.5,41.2,98.3,41.2L98.3,41.2z M104.6,10c-1.1-0.1-2,0.7-2,1.8
		c-0.1,1,0.7,2,1.8,2c12.8,0.8,22.8,11.5,22.8,24.4c0,13.7-11.2,24.4-24.4,24.4c-13.5,0-24.4-10.9-24.4-24.4
		c0-10.8,7.3-20.5,17.7-23.5c1-0.3,1.6-1.3,1.3-2.4c-0.3-1-1.3-1.6-2.4-1.3c-10.7,3.1-18.6,12.3-20.2,23.1c-1.6,1.1-3.3,2.4-4.9,3.2
		c-2.6,1.3-4.9,1.4-7.5,0.4c-1.9-0.8-3.5-1.9-5.2-3.1c-2.8-2-5.7-4.1-10-4.4C42,29.9,36.2,31.6,31.1,35c-6.7,4.5-11.1,12.8-12,22.6
		c-0.4,4.5-0.1,8.8,0.9,12.7c0.7,2.8,2,5.4,3.2,7.9c1.1,2.3,2.2,4.4,2.8,6.7c1.3,4.5,1.2,9.1,1,13.8c-0.1,1.8-0.1,3.6-0.1,5.4
		c0.1,10.5,0.1,23.5,8.5,31.1c3.3,3,8.7,6.2,13,4.1c3.2-1.5,3.7-4.9,4.4-9.5c0.4-2.4,0.8-5.4,1.7-9c0.2-0.8,0.4-1.7,0.6-2.7
		c0.3-1.3,0.8-3.1-1.1-3.6c-1.8-0.4-2.3,1.4-2.6,2.7c-0.2,0.9-0.4,1.8-0.6,2.6c-0.9,3.7-1.4,6.8-1.8,9.3c-0.6,4.2-1,6-2.3,6.7
		c-2.1,1-6.1-1.1-8.8-3.5c-7.1-6.4-7.2-18.5-7.2-28.3c0-1.8,0.1-3.5,0.1-5.3c0.2-4.9,0.4-9.9-1.1-15c-0.8-2.6-1.9-5-3.1-7.3
		c-1.2-2.4-2.3-4.7-2.9-7.1c-0.9-3.5-1.2-7.3-0.8-11.4c0.8-8.7,4.5-15.9,10.3-19.8c4.3-2.9,9.3-4.4,13.7-4.1
		c3.3,0.2,5.5,1.8,8.1,3.7c1.8,1.3,3.7,2.6,6,3.6c3.6,1.4,7,1.3,10.6-0.5c1-0.5,2-1.1,2.9-1.8c0.4,15.2,12.9,27.4,28.2,27.4
		c2.1,0,4.1-0.2,6.1-0.7c-0.6,3.7-1.7,7.2-3.4,10.2c-4.5,8.1-4.4,15.6-4.3,23.6c0,1.5,0,3,0,4.5c-0.1,9.7-0.1,21.9-7.2,28.3
		c-2.7,2.4-6.7,4.5-8.8,3.5c-1.3-0.6-1.6-2.5-2.3-6.7c-0.4-2.5-0.8-5.6-1.8-9.3c-1.6-6.3-4.2-18.5-11-22.1c-2.3-1.2-4.8-1.3-7.4-0.3
		c-3.5,1.3-6.3,4.5-8.4,9.8c-0.4,1,0.1,2.1,1.1,2.5c1,0.4,2.1-0.1,2.5-1.1c1.7-4.2,3.7-6.7,6.2-7.6c1.6-0.6,2.9-0.6,4.2,0.1
		c5.2,2.7,7.7,14.3,9.1,19.6c0.9,3.5,1.3,6.6,1.7,9c0.7,4.7,1.2,8,4.4,9.5c4.4,2.1,9.7-1.1,13-4.1c8.4-7.5,8.4-20.6,8.5-31.1
		c0-1.6,0-3.1,0-4.5c-0.1-7.8-0.2-14.5,3.8-21.7c2.1-3.9,3.5-8.4,4-13.3c10.6-4.1,18.1-14.3,18.1-26.4C131,23.4,119.4,11,104.6,10
		L104.6,10z M33.5,70.1c-1,0.1-1.8,1-1.7,2c0.1,1.1,0.3,2.2,0.5,3.3c0.2,0.9,1,1.5,1.8,1.5c1.2,0,2.1-1.2,1.9-2.4
		c-0.2-0.9-0.4-1.8-0.4-2.7C35.5,70.8,34.5,70,33.5,70.1L33.5,70.1z"/>
</g>
</svg>
